HIERARCHY
ROOT Hips
{
	OFFSET 0.00000 0.00000 0.00000
	CHANNELS 6 Xposition Yposition Zposition Zrotation Yrotation Xrotation 
	JOINT LHipJoint
	{
		OFFSET 0 0 0
		CHANNELS 3 Zrotation Yrotation Xrotation
		JOINT LeftHip
		{
			OFFSET 1.41261 -1.82971 0.84908
			CHANNELS 3 Zrotation Yrotation Xrotation
			JOINT LeftKnee
			{
				OFFSET 2.52554 -6.93888 0.00000
				CHANNELS 3 Zrotation Yrotation Xrotation
				JOINT LeftAnkle
				{
					OFFSET 2.56654 -7.05152 0.00000
					CHANNELS 3 Zrotation Yrotation Xrotation
					JOINT LeftToe
					{
						OFFSET 0.21698 -0.59616 1.85369
						CHANNELS 3 Zrotation Yrotation Xrotation
						End Site
						{
							OFFSET 0.00000 -0.00000 0.97832
						}
					}
				}
			}
		}
	}
	JOINT RHipJoint
	{
		OFFSET 0 0 0
		CHANNELS 3 Zrotation Yrotation Xrotation
		JOINT RightHip
		{
			OFFSET -1.12808 -1.82971 0.84907
			CHANNELS 3 Zrotation Yrotation Xrotation
			JOINT RightKnee
			{
				OFFSET -2.53425 -6.96280 0.00000
				CHANNELS 3 Zrotation Yrotation Xrotation
				JOINT RightAnkle
				{
					OFFSET -2.58413 -7.09983 0.00000
					CHANNELS 3 Zrotation Yrotation Xrotation
					JOINT RightToe
					{
						OFFSET -0.26437 -0.72636 1.92241
						CHANNELS 3 Zrotation Yrotation Xrotation
						End Site
						{
							OFFSET -0.00000 -0.00000 1.02667
						}
					}
				}
			}
		}
	}
	JOINT lowerback
	{
		OFFSET 0 0 0
		CHANNELS 3 Zrotation Yrotation Xrotation
		JOINT Chest
		{
			OFFSET -0.02096 2.02288 -0.14752
			CHANNELS 3 Zrotation Yrotation Xrotation
			JOINT Chest2
			{
				OFFSET 0.03477 2.03136 -0.02358
				CHANNELS 3 Zrotation Yrotation Xrotation
				JOINT lowerneck
				{
					OFFSET 0 0 0
					CHANNELS 3 Zrotation Yrotation Xrotation
					JOINT Neck
					{
						OFFSET 0.00174 1.74359 0.19336
						CHANNELS 3 Zrotation Yrotation Xrotation
						JOINT Head
						{
							OFFSET -0.03054 1.76140 -0.17751
							CHANNELS 3 Zrotation Yrotation Xrotation
							End Site
							{
								OFFSET -0.00863 1.77239 -0.08120
							}
						}
					}
				}
				JOINT LeftCollar
				{
					OFFSET 0 0 0
					CHANNELS 3 Zrotation Yrotation Xrotation
					JOINT LeftShoulder
					{
						OFFSET 3.68685 1.32687 -0.67367
CHANNELS 3 Zrotation Xrotation Yrotation
						JOINT LeftElbow
						{
OFFSET 0 -4.764680 -0.000000
CHANNELS 3 Zrotation Xrotation Yrotation
							JOINT LeftWrist
							{
OFFSET 0 -3.527120 -0.000000
CHANNELS 3 Zrotation Xrotation Yrotation
								JOINT lhand
								{
									OFFSET 0 0 0
CHANNELS 3 Zrotation Xrotation Yrotation
									JOINT LFingers
									{
OFFSET 0 -0.859560 -0.000000
CHANNELS 3 Zrotation Xrotation Yrotation
										End Site
										{
OFFSET 0 -0.693000 -0.000000
										}
									}
								}
								JOINT LThumb
								{
OFFSET 0 0.000000 0.000000
CHANNELS 3 Zrotation Xrotation Yrotation
									End Site
									{
OFFSET 0 -0.703580 0.703580
									}
								}
							}
						}
					}
				}
				JOINT RightCollar
				{
					OFFSET 0 0 0
					CHANNELS 3 Zrotation Yrotation Xrotation
					JOINT RightShoulder
					{
						OFFSET -3.31304 1.28268 -0.97357
CHANNELS 3 Zrotation Xrotation Yrotation
						JOINT RightElbow
						{
OFFSET 0 -4.905770 -0.000000
CHANNELS 3 Zrotation Xrotation Yrotation
							JOINT RightWrist
							{
OFFSET 0 -3.426920 0.000000
CHANNELS 3 Zrotation Xrotation Yrotation
								JOINT rhand
								{
									OFFSET 0 0 0
CHANNELS 3 Zrotation Xrotation Yrotation
									JOINT RFingers
									{
OFFSET 0 -0.740960 -0.000000
CHANNELS 3 Zrotation Xrotation Yrotation
										End Site
										{
OFFSET 0 -0.597380 -0.000000
										}
									}
								}
								JOINT RThumb
								{
OFFSET 0 0.000000 0.000000
CHANNELS 3 Zrotation Xrotation Yrotation
									End Site
									{
OFFSET 0 -0.606500 0.606500
									}
								}
							}
						}
					}
				}
			}
		}
	}
}
MOTION
Frames: 5
Frame Time: 0.008333333333333333
-0.334828 12.159239 13.857342 -2.288857 -2.636639 -13.567436 0.000000 0.000000 0.000000 -6.249560 -4.704543 -47.138241 27.059825 18.759098 111.061736 2.233893 -18.450166 -28.026591 2.216319 -9.302784 -26.747196 0.000000 0.000000 0.000000 14.570890 3.760515 -48.749511 -25.035012 -19.379819 104.869730 -3.474558 4.014151 -34.418491 -0.845430 -5.864459 16.391681 -1.951462 1.824522 26.322257 1.480132 1.962485 6.530750 2.129886 0.961994 -7.441017 4.736967 6.927549 -7.214315 -8.224546 11.308988 27.584484 -2.433982 4.799383 10.799133 0.000000 0.000000 0.000000 -6.566384 -2.059002 -17.474982 26.152257 -37.356199 8.980839 15.753802 -7.199245 19.674396 0.000000 0.000000 0.000000 -7.125000 0.000000 0.000000 -8.114598 9.757012 -6.690064 0.000000 0.000000 0.000000 -8.409399 -26.526050 28.400090 -21.495151 -32.389468 -6.318822 -17.133253 10.530762 35.059290 0.000000 0.000000 0.000000 7.125000 0.000000 0.000000 20.779409 65.129446 -10.327354
-0.366736 12.808157 14.447039 -2.554315 -1.599305 -10.563047 0.000000 0.000000 0.000000 -6.951296 -5.376952 -43.819995 25.135558 19.350732 105.175388 2.401465 -19.084655 -29.076240 2.335408 -9.532227 -27.474850 0.000000 0.000000 0.000000 15.832532 2.844495 -45.584281 -23.169373 -19.753095 99.304640 -3.701919 2.642483 -35.869462 -0.767462 -5.592868 15.608038 -1.847957 2.028186 24.749192 0.991040 2.246592 5.827202 1.463024 1.106792 -7.422027 5.648914 8.085434 -6.938671 -9.423723 13.137818 27.137868 -2.778356 5.622142 10.891411 0.000000 0.000000 0.000000 -5.697345 0.386304 -22.564223 24.468310 -35.655287 7.978060 12.858880 0.783417 20.626978 0.000000 0.000000 0.000000 -7.125000 0.000000 0.000000 -10.002752 9.124447 -8.422681 0.000000 0.000000 0.000000 -8.796315 -23.812674 27.423271 -26.376615 -37.569432 -9.119822 -15.964254 7.812979 33.703629 0.000000 0.000000 0.000000 7.125000 0.000000 0.000000 20.725093 63.567557 -9.534426
-0.395118 13.708805 14.952169 -2.467492 -0.212308 -8.233057 0.000000 0.000000 0.000000 -8.741588 -5.451864 -39.412400 22.133889 19.883471 96.251840 2.054431 -18.412470 -27.026997 2.183722 -9.238539 -26.544539 0.000000 0.000000 0.000000 16.895424 1.890879 -41.034169 -20.237079 -19.991910 90.693189 -3.350927 1.346621 -34.373377 -0.855398 -5.897781 16.488328 -2.142713 2.255516 23.709620 0.494021 2.453840 5.538946 1.046887 1.213661 -7.206720 6.673355 9.449781 -6.736644 -11.206779 15.280904 25.726181 -3.277841 6.571070 10.779912 0.000000 0.000000 0.000000 -4.837888 1.812138 -24.165299 24.247493 -35.424838 7.849533 10.693799 4.080361 18.723826 0.000000 0.000000 0.000000 -7.125000 0.000000 0.000000 -11.370440 11.229959 -9.118860 0.000000 0.000000 0.000000 -8.525849 -20.144599 26.457967 -29.230636 -40.224206 -10.909568 -13.039037 2.943943 32.433355 0.000000 0.000000 0.000000 7.125000 0.000000 0.000000 22.738297 61.653873 -9.486102
-0.424604 14.719360 15.432398 -2.440358 2.318768 -6.545455 0.000000 0.000000 0.000000 -10.498827 -6.672711 -33.411494 18.325607 19.925389 85.097145 1.569491 -17.761132 -24.025470 2.576962 -9.975767 -28.898849 0.000000 0.000000 0.000000 18.068137 -0.010585 -35.278201 -16.563094 -19.707948 79.901777 -2.737485 -0.621814 -31.572483 -1.062564 -6.552849 18.397445 -1.739813 2.575503 22.909501 -0.087363 2.941915 5.045447 0.057208 1.447594 -7.303802 7.523244 10.277448 -6.292338 -11.722943 16.563447 25.834902 -3.429098 7.206660 11.011233 0.000000 0.000000 0.000000 -3.611934 3.065417 -23.725361 23.730703 -34.878114 7.552046 6.174823 4.952451 14.373108 0.000000 0.000000 0.000000 -7.125000 0.000000 0.000000 -14.454630 15.814253 -10.299422 0.000000 0.000000 0.000000 -7.975953 -14.961166 24.704368 -28.908441 -39.937662 -10.702467 -12.106813 3.145343 32.414151 0.000000 0.000000 0.000000 7.125000 0.000000 0.000000 23.710576 61.406235 -9.778644
-0.421256 15.691655 15.903280 -2.042925 5.183230 -4.442758 0.000000 0.000000 0.000000 -12.731322 -8.586203 -27.549670 14.304137 19.199234 73.127433 1.148158 -15.932062 -20.731091 2.965397 -10.638646 -31.070672 0.000000 0.000000 0.000000 18.513035 -1.059554 -30.581712 -13.105473 -18.817228 69.450013 -1.981633 -2.808783 -27.722395 -1.635020 -8.059004 22.894321 -1.221606 2.785512 21.245021 -0.707522 3.323659 4.362370 -0.961574 1.627336 -7.121772 7.041623 10.829209 -5.988210 -10.672495 17.223408 26.059765 -2.897221 7.583906 10.958086 0.000000 0.000000 0.000000 -2.234612 4.094865 -22.371389 23.649481 -34.791314 7.505610 1.835734 4.756429 10.752559 0.000000 0.000000 0.000000 -7.125000 0.000000 0.000000 -17.660081 19.451064 -11.316640 0.000000 0.000000 0.000000 -7.025280 -9.864507 23.315021 -26.345685 -37.546685 -9.098024 -10.607122 4.188325 32.967936 0.000000 0.000000 0.000000 7.125000 0.000000 0.000000 25.796345 61.533587 -10.779259
